<svg
      xmlns="http://www.w3.org/2000/svg"
      viewBox="0 0 400 400"
    >
      <g transform="matrix(1 0 0 1 235 180)" id="DjDYlV9BdZxd4l5Poe0-L">
        <path
          style="stroke: rgb(0,0,0); stroke-width: 1; stroke-dasharray: none; stroke-linecap: butt; stroke-dashoffset: 0; stroke-linejoin: miter; stroke-miterlimit: 4; fill: rgb(0,0,0); fill-rule: nonzero; opacity: 1;"
          vector-effect="non-scaling-stroke"
          transform=" translate(0, 0) scale(0.60)"
          d="M -40 40 L 40 40 L 40 -40 L -40 -40"
          stroke-linecap="round"
        />
      </g>
      <g transform="matrix(1 0 0 1 215 200)" id="99Maz_lUxNlx8ra5Ev1Ll">
        <path
          style="stroke: rgb(0,0,0); stroke-width: 1; stroke-dasharray: none; stroke-linecap: butt; stroke-dashoffset: 0; stroke-linejoin: miter; stroke-miterlimit: 4; fill: rgb(0,0,0); fill-rule: nonzero; opacity: 1;"
          vector-effect="non-scaling-stroke"
          transform=" translate(0, 0) scale(0.60)"
          d="M -80 -110 L -80 -190 L 0 -190 L 0 90 L 20 110 L 80 110 L 80 190 L -40 190 L -80 150 z"
          stroke-linecap="round"
        />
      </g>
      <path
        d="M400,382.13a199.13,199.13,0,0,0,50-131.35h0c0-.26,0-.52,0-.78a199.11,199.11,0,0,0-50-132.11V250c0,82.71-67.29,150-150,150S100,332.71,100,250s67.29-150,150-150V50C139.72,50,50,139.72,50,250s89.72,200,200,200a199.56,199.56,0,0,0,150-67.87Z"
        transform="translate(-50 -50)"
      />
      <path
        d="M100,249.22h0V250C100,249.74,100,249.48,100,249.22Z"
        transform="translate(-50 -50)"
      />
    </svg>